<svg version="1.1" viewBox="0.0 0.0 433.8608923884514 468.5223097112861" fill="none" stroke="none" stroke-linecap="square" stroke-miterlimit="10" xmlns:xlink="http://www.w3.org/1999/xlink" xmlns="http://www.w3.org/2000/svg"><clipPath id="p.0"><path d="m0 0l433.8609 0l0 468.5223l-433.8609 0l0 -468.5223z" clip-rule="nonzero"/></clipPath><g clip-path="url(#p.0)"><path fill="#000000" fill-opacity="0.0" d="m0 0l433.8609 0l0 468.5223l-433.8609 0z" fill-rule="evenodd"/><path fill="#f44336" d="m315.6598 233.45782l0 26.405396c0 31.739807 -3.824768 55.74472 -11.474274 72.01471c-10.023499 21.070984 -25.71817 37.696594 -47.084076 49.87686c-21.36586 12.091339 -45.765167 18.137054 -73.19791 18.137054c-27.696518 0 -48.754654 -6.401306 -63.174423 -19.203918c-14.331848 -12.802612 -21.497765 -28.805908 -21.497765 -48.009827c0 -12.535889 3.297203 -23.916016 9.891609 -34.14032c6.594406 -10.313232 15.958466 -18.137024 28.092178 -23.471466c12.133713 -5.3344116 32.84015 -10.1354065 62.11931 -14.402924c51.70015 -7.4682007 90.47528 -16.536728 116.32535 -27.205566zm-90.60716 -221.24522c-36.137344 0 -67.92239 5.02326 -95.35512 15.069746c-27.43274 9.957602 -48.402954 24.227186 -62.910652 42.808746c-14.50769 18.492683 -24.926857 42.808754 -31.257488 72.94824l69.63695 9.601959c7.6495132 -30.139488 19.431519 -51.121544 35.346016 -62.94619c16.002441 -11.913536 40.75345 -17.870323 74.25304 -17.870323c35.873566 0 62.91063 8.1349945 81.11119 24.404991c13.452606 12.002449 20.178894 32.673347 20.178894 62.012672c0 2.667221 -0.13189697 8.935165 -0.3956604 18.803848c-27.168945 9.601959 -69.50505 17.870316 -127.008286 24.805069c-28.22406 3.4673767 -49.326157 7.068115 -63.306305 10.8022c-18.991898 5.334427 -36.09339 13.202698 -51.30449 23.604828c-15.123169 10.40213 -27.388767 24.227142 -36.796795 41.47516c-9.320089 17.159027 -13.980143 36.140717 -13.980143 56.944946c0 35.473938 12.397486 64.63544 37.19246 87.48456c24.794968 22.760193 60.27288 34.14032 106.43374 34.14032c27.960281 0 54.118088 -4.667633 78.473434 -14.002869c24.443268 -9.335236 49.85373 -25.338501 76.23135 -48.009796c2.110199 20.00409 6.858185 37.474304 14.243927 52.410706l74.38492 0c-8.968414 -16.269989 -14.9913025 -33.25128 -18.068695 -50.943756c-2.989441 -17.781433 -4.484192 -60.14563 -4.484192 -127.09265l0 -96.01962c0 -32.00653 -1.1869812 -54.144394 -3.5609741 -66.41357c-4.2204285 -19.737366 -11.606171 -36.051804 -22.157227 -48.94334c-10.551025 -12.980419 -27.037048 -23.738182 -49.45804 -32.273262c-22.42099 -8.535078 -51.568268 -12.802616 -87.44185 -12.802616z" fill-rule="evenodd"/></g></svg>