<svg version="1.1" viewBox="0.0 0.0 109.71916010498688 100.96587926509186" fill="none" stroke="none" stroke-linecap="square" stroke-miterlimit="10" xmlns:xlink="http://www.w3.org/1999/xlink" xmlns="http://www.w3.org/2000/svg"><clipPath id="p.0"><path d="m0 0l109.71916 0l0 100.96588l-109.71916 0l0 -100.96588z" clip-rule="nonzero"/></clipPath><g clip-path="url(#p.0)"><path fill="#000000" fill-opacity="0.0" d="m0 0l109.71916 0l0 100.96588l-109.71916 0z" fill-rule="evenodd"/><path fill="#1976d2" d="m8.059198 50.931736l101.65725 0l0 14.088871l-101.65725 0z" fill-rule="evenodd"/><path fill="#1976d2" d="m73.44061 95.91817l0 -79.06529l14.523842 0l0 79.06529z" fill-rule="evenodd"/><path fill="#1976d2" d="m51.685413 95.91817l0 -67.2514l14.523838 0l0 67.2514z" fill-rule="evenodd"/><path fill="#1976d2" d="m29.930208 95.91817l0 -56.794506l14.52384 0l0 56.794506z" fill-rule="evenodd"/><path fill="#1976d2" d="m95.19582 95.91817l0 -90.86922l14.523842 0l0 90.86922z" fill-rule="evenodd"/><path fill="#1976d2" d="m8.175003 95.91817l0 -49.07157l14.523842 0l0 49.07157z" fill-rule="evenodd"/></g></svg>