<svg version="1.1" viewBox="0.0 0.0 109.71916010498688 100.96587926509186" fill="none" stroke="none" stroke-linecap="square" stroke-miterlimit="10" xmlns:xlink="http://www.w3.org/1999/xlink" xmlns="http://www.w3.org/2000/svg"><clipPath id="p.0"><path d="m0 0l109.71916 0l0 100.96588l-109.71916 0l0 -100.96588z" clip-rule="nonzero"/></clipPath><g clip-path="url(#p.0)"><path fill="#000000" fill-opacity="0.0" d="m0 0l109.71916 0l0 100.96588l-109.71916 0z" fill-rule="evenodd"/><path fill="#1976d2" d="m0 50.47396l108.89004 0l0 15.498642l-108.89004 0z" fill-rule="evenodd"/><path fill="#1976d2" d="m70.033226 99.961876l0 -86.97682l15.557198 0l0 86.97682z" fill-rule="evenodd"/><path fill="#1976d2" d="m46.730167 99.961876l0 -73.98079l15.557198 0l0 73.98079z" fill-rule="evenodd"/><path fill="#1976d2" d="m23.427105 99.961876l0 -62.477547l15.557198 0l0 62.477547z" fill-rule="evenodd"/><path fill="#1976d2" d="m93.33629 99.961876l0 -99.961876l15.557198 0l0 99.961876z" fill-rule="evenodd"/><path fill="#1976d2" d="m0.1240441 99.961876l0 -53.981827l15.557197 0l0 53.981827z" fill-rule="evenodd"/></g></svg>