<svg version="1.1" viewBox="0.0 0.0 138.11286089238845 106.53543307086615" fill="none" stroke="none" stroke-linecap="square" stroke-miterlimit="10" xmlns:xlink="http://www.w3.org/1999/xlink" xmlns="http://www.w3.org/2000/svg"><clipPath id="p.0"><path d="m0 0l138.11285 0l0 106.53543l-138.11285 0l0 -106.53543z" clip-rule="nonzero"/></clipPath><g clip-path="url(#p.0)"><path fill="#000000" fill-opacity="0.0" d="m0 0l138.11285 0l0 106.53543l-138.11285 0z" fill-rule="evenodd"/><path fill="#d32f2f" d="m60.48294 62.619423l0 -51.65354l76.44095 51.65354z" fill-rule="evenodd"/><path fill="#f44336" d="m-0.001312336 -0.001312336l136.62993 0l0 78.173225l-136.62993 0z" fill-rule="evenodd"/><path fill="#f44336" d="m22.114174 78.166664l0 -51.65354l76.44094 51.65354z" fill-rule="evenodd"/><path fill="#d32f2f" d="m136.62993 51.64042l0 53.66929l-75.93701 -53.66929z" fill-rule="evenodd"/><path fill="#d32f2f" d="m136.62862 -0.001312336l0 51.65354l-76.44095 -51.65354z" fill-rule="evenodd"/><path fill="#d32f2f" d="m60.48163 -0.001312336l0 51.65354l-21.480316 -51.65354z" fill-rule="evenodd"/><path fill="#d32f2f" d="m60.48163 51.65223l0 -51.65354l76.44095 51.65354z" fill-rule="evenodd"/><path fill="#d32f2f" d="m55.641705 38.447998l0 0c-4.6719894 5.865097 -12.760307 7.603058 -19.376625 4.163517c-6.616314 -3.4395409 -9.946379 -11.113438 -7.977602 -18.383816c1.9687786 -7.270378 8.696543 -12.143644 16.117235 -11.674542z" fill-rule="evenodd"/><path fill="#f44336" d="m44.345608 12.226427l0 0c6.022732 0.15761852 11.394161 3.7756348 13.802593 9.29697c2.4084358 5.5213375 1.4241562 11.960859 -2.5292358 16.547209z" fill-rule="evenodd"/><path fill="#d32f2f" d="m35.939632 52.853455l0 -12.688099c0 1.4014893 3.5335426 2.5376205 7.8923874 2.5376205c4.3588448 0 7.8923874 -1.1361313 7.8923874 -2.5376205l0 12.688099l0 0c0 1.4014893 -3.5335426 2.5376205 -7.8923874 2.5376205c-4.3588448 0 -7.8923874 -1.1361313 -7.8923874 -2.5376205z" fill-rule="evenodd"/></g></svg>