<svg version="1.1" viewBox="0.0 0.0 109.71916010498688 100.96587926509186" fill="none" stroke="none" stroke-linecap="square" stroke-miterlimit="10" xmlns:xlink="http://www.w3.org/1999/xlink" xmlns="http://www.w3.org/2000/svg"><clipPath id="p.0"><path d="m0 0l109.71916 0l0 100.96588l-109.71916 0l0 -100.96588z" clip-rule="nonzero"/></clipPath><g clip-path="url(#p.0)"><path fill="#000000" fill-opacity="0.0" d="m0 0l109.71916 0l0 100.96588l-109.71916 0z" fill-rule="evenodd"/><path fill="#d32f2f" d="m52.22398 63.083157l0 -44.618332l57.494587 44.618332z" fill-rule="evenodd"/><path fill="#f44336" d="m3.261348 8.990383l106.230995 0l0 67.52603l-106.230995 0z" fill-rule="evenodd"/><path fill="#f44336" d="m22.661839 76.51261l0 -44.618332l67.054 44.618332z" fill-rule="evenodd"/><path fill="#d32f2f" d="m109.50964 53.600475l0 46.35953l-59.04178 -46.35953z" fill-rule="evenodd"/><path fill="#d32f2f" d="m109.50862 8.991345l0 44.618332l-59.428574 -44.618332z" fill-rule="evenodd"/><path fill="#d32f2f" d="m50.294586 8.991345l0 44.618332l-16.687523 -44.618332z" fill-rule="evenodd"/><path fill="#d32f2f" d="m50.294586 53.608715l0 -44.618332l59.428574 44.618332z" fill-rule="evenodd"/><path fill="#d32f2f" d="m49.101616 43.71395l0 0c-4.1271133 5.0239944 -11.212498 6.477993 -16.989277 3.4863815c-5.776781 -2.9916077 -8.668373 -9.612354 -6.9334393 -15.875187c1.734932 -6.2628307 7.622896 -10.458502 14.118116 -10.060352z" fill-rule="evenodd"/><path fill="#f44336" d="m38.933434 21.471882l0 0c5.2781944 0.14784622 9.979645 3.2784805 12.083977 8.046566c2.1043358 4.7680817 1.2367592 10.324406 -2.2298927 14.281227z" fill-rule="evenodd"/><path fill="#d32f2f" d="m31.527216 54.647057l0 -10.959984c0 1.2106094 3.0996227 2.1919975 6.9232044 2.1919975c3.823578 0 6.9232025 -0.9813881 6.9232025 -2.1919975l0 10.959984l0 0c0 1.2106056 -3.0996246 2.1919975 -6.9232025 2.1919975c-3.8235817 0 -6.9232044 -0.9813919 -6.9232044 -2.1919975z" fill-rule="evenodd"/></g></svg>