<svg version="1.1" viewBox="0.0 0.0 520.6377952755905 643.9842519685039" fill="none" stroke="none" stroke-linecap="square" stroke-miterlimit="10" xmlns:xlink="http://www.w3.org/1999/xlink" xmlns="http://www.w3.org/2000/svg"><clipPath id="p.0"><path d="m0 0l520.6378 0l0 643.98425l-520.6378 0l0 -643.98425z" clip-rule="nonzero"/></clipPath><g clip-path="url(#p.0)"><path fill="#000000" fill-opacity="0.0" d="m0 0l520.6378 0l0 643.98425l-520.6378 0z" fill-rule="evenodd"/><path fill="#1976d2" d="m434.8521 383.14136c-70.818085 83.87039 -191.49925 107.618774 -289.60156 56.989594c-98.10234 -50.62918 -146.96469 -161.8765 -117.25619 -266.96292c29.7085 -105.08643 129.914 -175.45277 240.4656 -168.85982z" fill-rule="evenodd"/><path fill="#2196f3" d="m268.99454 -0.38635296l0 0c89.93793 2.6619098 169.9581 55.402992 205.71823 135.5883c35.7601 80.18532 20.901337 173.55647 -38.19931 240.04128z" fill-rule="evenodd"/><path fill="#1976d2" d="m142.24388 589.89685l0 -184.3581c0 20.363617 52.860382 36.871613 118.06697 36.871613c65.20657 0 118.066956 -16.507996 118.066956 -36.871613l0 184.3581l0 0c0 20.363647 -52.860382 36.871643 -118.066956 36.871643c-65.20659 0 -118.06697 -16.507996 -118.06697 -36.871643z" fill-rule="evenodd"/></g></svg>