<svg version="1.1" viewBox="0.0 0.0 309.8503937007874 325.04199475065616" fill="none" stroke="none" stroke-linecap="square" stroke-miterlimit="10" xmlns:xlink="http://www.w3.org/1999/xlink" xmlns="http://www.w3.org/2000/svg"><clipPath id="p.0"><path d="m0 0l309.8504 0l0 325.042l-309.8504 0l0 -325.042z" clip-rule="nonzero"/></clipPath><g clip-path="url(#p.0)"><path fill="#000000" fill-opacity="0.0" d="m0 0l309.8504 0l0 325.042l-309.8504 0z" fill-rule="evenodd"/><path fill="#7b1fa2" d="m45.75328 109.41732l0 0c0 -60.429516 48.776283 -109.41732 108.944885 -109.41732l0 0c28.893982 0 56.604538 11.5278635 77.03566 32.047592c20.431137 20.51973 31.90921 48.35045 31.90921 77.36973l0 0c0 60.429527 -48.776276 109.41732 -108.94487 109.41732l0 0c-60.168602 0 -108.944885 -48.987793 -108.944885 -109.41732zm65.61968 0c0 24.188774 19.397346 43.797646 43.325203 43.797646c23.927841 0 43.325195 -19.608871 43.325195 -43.797646c0 -24.188766 -19.397354 -43.797638 -43.325195 -43.797638l0 0c-23.927856 0 -43.325203 19.608871 -43.325203 43.797638z" fill-rule="evenodd"/><path fill="#9c27b0" d="m157.24368 0.56467426l0 0c60.31218 1.385838 108.20935 50.72887 107.28409 110.52262c-0.92529297 59.793747 -50.326706 107.65735 -110.6534 107.20886l0.4930725 -65.168304l0 0c24.5363 0.17773438 44.62645 -19.042145 44.997955 -43.04873c0.37149048 -24.006592 -19.114746 -43.812843 -43.64531 -44.362083z" fill-rule="evenodd"/><path fill="#7b1fa2" d="m233.6588 184.2126l-78.96063 138.96062l-78.96063 -138.96062z" fill-rule="evenodd"/><path fill="#9c27b0" d="m233.6588 184.22047l-79.968506 140.15749l0 -140.15749z" fill-rule="evenodd"/></g></svg>