<svg version="1.1" viewBox="0.0 0.0 252.02099737532808 218.96850393700788" fill="none" stroke="none" stroke-linecap="square" stroke-miterlimit="10" xmlns:xlink="http://www.w3.org/1999/xlink" xmlns="http://www.w3.org/2000/svg"><clipPath id="p.0"><path d="m0 0l252.021 0l0 218.9685l-252.021 0l0 -218.9685z" clip-rule="nonzero"/></clipPath><g clip-path="url(#p.0)"><path fill="#000000" fill-opacity="0.0" d="m0 0l252.021 0l0 218.9685l-252.021 0z" fill-rule="evenodd"/><path fill="#ef6c00" d="m0 0l55.74803 0l0 218.3307l-55.74803 0z" fill-rule="evenodd"/><path fill="#f57c00" d="m97.66929 0l0 55.74803l-97.66929 0l0 -55.74803z" fill-rule="evenodd"/><path fill="#fb8c00" d="m41.92126 -1.992126E-4l55.748028 0l0 85.95276l-55.748028 0z" fill-rule="evenodd"/><path fill="#ff9800" d="m251.90503 0l0 55.74803l-104.157486 0l0 -55.74803z" fill-rule="evenodd"/><path fill="#ffa726" d="m147.74803 0l55.74803 0l0 218.3307l-55.74803 0z" fill-rule="evenodd"/><path fill="#ffb74d" d="m203.49606 162.58267l0 55.74803l-105.826775 0l0 -55.74803z" fill-rule="evenodd"/></g></svg>