<svg version="1.1" viewBox="0.0 0.0 100.0 100.0" fill="none" stroke="none" stroke-linecap="square" stroke-miterlimit="10" xmlns:xlink="http://www.w3.org/1999/xlink" xmlns="http://www.w3.org/2000/svg"><clipPath id="p.0"><path d="m0 0l100.0 0l0 100.0l-100.0 0l0 -100.0z" clip-rule="nonzero"/></clipPath><g clip-path="url(#p.0)"><path fill="#000000" fill-opacity="0.0" d="m0 0l100.0 0l0 100.0l-100.0 0z" fill-rule="evenodd"/><path fill="#000000" fill-opacity="0.0" d="m8.3307085 50.0l0 0c0 -23.013313 18.65598 -41.669292 41.669292 -41.669292l0 0c11.051384 0 21.650131 4.3901453 29.464638 12.204654c7.8145065 7.8145065 12.204651 18.413254 12.204651 29.464638l0 0c0 23.013313 -18.655975 41.66929 -41.66929 41.66929l0 0c-23.013313 0 -41.669292 -18.655975 -41.669292 -41.66929z" fill-rule="evenodd"/><path stroke="#ffffff" stroke-width="4.0" stroke-linejoin="round" stroke-linecap="butt" d="m8.3307085 50.0l0 0c0 -23.013313 18.65598 -41.669292 41.669292 -41.669292l0 0c11.051384 0 21.650131 4.3901453 29.464638 12.204654c7.8145065 7.8145065 12.204651 18.413254 12.204651 29.464638l0 0c0 23.013313 -18.655975 41.66929 -41.66929 41.66929l0 0c-23.013313 0 -41.669292 -18.655975 -41.669292 -41.66929z" fill-rule="evenodd"/><path fill="#ffffff" d="m34.946114 56.92q-0.40625 0 -0.6875 -0.28125q-0.28125 -0.28125 -0.28125 -0.6875l0 -12.625q0 -0.4375 0.28125 -0.703125q0.28125 -0.28125 0.6875 -0.28125q0.5625 0 0.859375 0.53125l5.84375 11.703125l-0.59375 0l5.6875 -11.703125q0.296875 -0.53125 0.859375 -0.53125q0.40625 0 0.6875 0.28125q0.28125 0.265625 0.28125 0.703125l0 12.625q0 0.40625 -0.296875 0.6875q-0.28125 0.28125 -0.671875 0.28125q-0.40625 0 -0.6875 -0.28125q-0.28125 -0.28125 -0.28125 -0.6875l0 -9.9375l0.375 -0.09375l-4.890625 9.953125q-0.3125 0.484375 -0.84375 0.484375q-0.609375 0 -0.890625 -0.578125l-4.828125 -9.6875l0.375 -0.078125l0 9.9375q0 0.40625 -0.28125 0.6875q-0.28125 0.28125 -0.703125 0.28125zm23.771088 0q-0.40625 0 -0.6875 -0.28125q-0.265625 -0.28125 -0.265625 -0.6875l0 -12.625q0 -0.421875 0.28125 -0.703125q0.28125 -0.28125 0.671875 -0.28125q0.421875 0 0.6875 0.28125q0.28125 0.28125 0.28125 0.703125l0 11.65625l6.765625 0q0.40625 0 0.6875 0.28125q0.28125 0.28125 0.28125 0.6875q0 0.40625 -0.28125 0.6875q-0.28125 0.28125 -0.6875 0.28125l-7.734375 0z" fill-rule="nonzero"/></g></svg>